<svg width="49" height="10" viewBox="0 0 49 10" fill="none" xmlns="http://www.w3.org/2000/svg">
<path d="M3.74455 9.072C3.12055 9.072 2.52055 8.972 1.94455 8.772C1.37655 8.572 0.936547 8.308 0.624547 7.98L0.972547 7.296C1.27655 7.6 1.68055 7.848 2.18455 8.04C2.68855 8.224 3.20855 8.316 3.74455 8.316C4.49655 8.316 5.06055 8.18 5.43655 7.908C5.81255 7.628 6.00055 7.268 6.00055 6.828C6.00055 6.492 5.89655 6.224 5.68855 6.024C5.48855 5.824 5.24055 5.672 4.94455 5.568C4.64855 5.456 4.23655 5.336 3.70855 5.208C3.07655 5.048 2.57255 4.896 2.19655 4.752C1.82055 4.6 1.49655 4.372 1.22455 4.068C0.960547 3.764 0.828547 3.352 0.828547 2.832C0.828547 2.408 0.940547 2.024 1.16455 1.68C1.38855 1.328 1.73255 1.048 2.19655 0.84C2.66055 0.632 3.23655 0.528 3.92455 0.528C4.40455 0.528 4.87255 0.596 5.32855 0.732C5.79255 0.86 6.19255 1.04 6.52855 1.272L6.22855 1.98C5.87655 1.748 5.50055 1.576 5.10055 1.464C4.70055 1.344 4.30855 1.284 3.92455 1.284C3.18855 1.284 2.63255 1.428 2.25655 1.716C1.88855 1.996 1.70455 2.36 1.70455 2.808C1.70455 3.144 1.80455 3.416 2.00455 3.624C2.21255 3.824 2.46855 3.98 2.77255 4.092C3.08455 4.196 3.50055 4.312 4.02055 4.44C4.63655 4.592 5.13255 4.744 5.50855 4.896C5.89255 5.04 6.21655 5.264 6.48055 5.568C6.74455 5.864 6.87655 6.268 6.87655 6.78C6.87655 7.204 6.76055 7.592 6.52855 7.944C6.30455 8.288 5.95655 8.564 5.48455 8.772C5.01255 8.972 4.43255 9.072 3.74455 9.072ZM12.4594 9.072C11.6274 9.072 10.8754 8.888 10.2034 8.52C9.53936 8.152 9.01536 7.644 8.63136 6.996C8.25536 6.34 8.06736 5.608 8.06736 4.8C8.06736 3.992 8.25536 3.264 8.63136 2.616C9.01536 1.96 9.54336 1.448 10.2154 1.08C10.8874 0.712 11.6394 0.528 12.4714 0.528C13.0954 0.528 13.6714 0.632 14.1994 0.84C14.7274 1.048 15.1754 1.352 15.5434 1.752L14.9794 2.316C14.3234 1.652 13.4954 1.32 12.4954 1.32C11.8314 1.32 11.2274 1.472 10.6834 1.776C10.1394 2.08 9.71136 2.496 9.39936 3.024C9.09536 3.552 8.94336 4.144 8.94336 4.8C8.94336 5.456 9.09536 6.048 9.39936 6.576C9.71136 7.104 10.1394 7.52 10.6834 7.824C11.2274 8.128 11.8314 8.28 12.4954 8.28C13.5034 8.28 14.3314 7.944 14.9794 7.272L15.5434 7.836C15.1754 8.236 14.7234 8.544 14.1874 8.76C13.6594 8.968 13.0834 9.072 12.4594 9.072ZM23.1724 9L21.2524 6.3C21.0364 6.324 20.8124 6.336 20.5804 6.336H18.3244V9H17.4364V0.599999H20.5804C21.6524 0.599999 22.4924 0.855999 23.1004 1.368C23.7084 1.88 24.0124 2.584 24.0124 3.48C24.0124 4.136 23.8444 4.692 23.5084 5.148C23.1804 5.596 22.7084 5.92 22.0924 6.12L24.1444 9H23.1724ZM20.5564 5.58C21.3884 5.58 22.0244 5.396 22.4644 5.028C22.9044 4.66 23.1244 4.144 23.1244 3.48C23.1244 2.8 22.9044 2.28 22.4644 1.92C22.0244 1.552 21.3884 1.368 20.5564 1.368H18.3244V5.58H20.5564ZM29.7802 9.072C28.9482 9.072 28.1922 8.888 27.5122 8.52C26.8402 8.144 26.3122 7.632 25.9282 6.984C25.5522 6.336 25.3642 5.608 25.3642 4.8C25.3642 3.992 25.5522 3.264 25.9282 2.616C26.3122 1.968 26.8402 1.46 27.5122 1.092C28.1922 0.716 28.9482 0.528 29.7802 0.528C30.6122 0.528 31.3602 0.712 32.0242 1.08C32.6962 1.448 33.2242 1.96 33.6082 2.616C33.9922 3.264 34.1842 3.992 34.1842 4.8C34.1842 5.608 33.9922 6.34 33.6082 6.996C33.2242 7.644 32.6962 8.152 32.0242 8.52C31.3602 8.888 30.6122 9.072 29.7802 9.072ZM29.7802 8.28C30.4442 8.28 31.0442 8.132 31.5802 7.836C32.1162 7.532 32.5362 7.116 32.8402 6.588C33.1442 6.052 33.2962 5.456 33.2962 4.8C33.2962 4.144 33.1442 3.552 32.8402 3.024C32.5362 2.488 32.1162 2.072 31.5802 1.776C31.0442 1.472 30.4442 1.32 29.7802 1.32C29.1162 1.32 28.5122 1.472 27.9682 1.776C27.4322 2.072 27.0082 2.488 26.6962 3.024C26.3922 3.552 26.2402 4.144 26.2402 4.8C26.2402 5.456 26.3922 6.052 26.6962 6.588C27.0082 7.116 27.4322 7.532 27.9682 7.836C28.5122 8.132 29.1162 8.28 29.7802 8.28ZM36.1746 0.599999H37.0626V8.232H41.7666V9H36.1746V0.599999ZM43.241 0.599999H44.129V8.232H48.833V9H43.241V0.599999Z" fill="#111111"/>
</svg>
